<?xml version="1.0"?>
<svg xmlns="http://www.w3.org/2000/svg" xmlns:xlink="http://www.w3.org/1999/xlink" version="1.1" id="Capa_1" x="0px" y="0px" viewBox="0 0 490 490" style="enable-background:new 0 0 490 490;" xml:space="preserve" width="512px" height="512px"><g><g>
	<path d="M404.2,319.4c-2.9,0-5.7,0.1-8.6,0.4l-76.7-140.7c19.8-19,32.2-45.6,32.2-75.1c0-57.2-46.8-104-104-104s-104,46.8-104,104   c0,30.7,13.5,58.5,34.9,77.6l-76.8,139.2c-5-0.9-10.1-1.4-15.4-1.4c-46.8,0-85.3,38.5-85.3,85.3S39,490,85.8,490   s85.3-38.5,85.3-85.3c0-26.8-12.6-50.9-32.2-66.5l74.8-135.6c10.5,3.6,21.7,5.5,33.4,5.5c13,0,25.4-2.4,36.9-6.8l73,132.5   c-22.9,15.4-38.1,41.5-38.1,70.9c0,46.8,38.5,85.3,85.3,85.3s85.3-38.5,85.3-85.3S451,319.4,404.2,319.4z M85.8,449.4   c-25,0-44.7-19.8-44.7-44.7S60.9,360,85.8,360c25,0,44.7,19.8,44.7,44.7S110.8,449.4,85.8,449.4z M184.7,104   c0-34.3,28.1-62.4,62.4-62.4s62.4,28.1,62.4,62.4s-28.1,62.4-62.4,62.4C212.7,166.5,184.7,138.4,184.7,104z M404.2,449.4   c-25,0-44.7-19.8-44.7-44.7s19.8-44.7,44.7-44.7c25,0,44.7,19.8,44.7,44.7S429.1,449.4,404.2,449.4z" data-original="#000000" class="active-path" data-old_color="#755B5B" fill="#D3D3D3"/>
</g></g> </svg>
