<?xml version="1.0" encoding="utf-8"?>
<!-- Generator: Adobe Illustrator 22.1.0, SVG Export Plug-In . SVG Version: 6.00 Build 0)  -->
<svg version="1.1" id="Laag_1" xmlns="http://www.w3.org/2000/svg" xmlns:xlink="http://www.w3.org/1999/xlink" x="0px" y="0px"
	 viewBox="0 0 448 512" style="enable-background:new 0 0 448 512;" xml:space="preserve">
<style type="text/css">
	.st0{fill:#AFAEAE;}
	.st1{fill:#FF0000;}
	.st2{fill:#FFFFFF;}
	.st3{font-family:'MyriadPro-Regular';}
	.st4{font-size:159px;}
	.st5{fill:none;}
</style>
<g id="Laag_1_1_">
	<path class="st0" d="M439.4,362.3c-19.3-20.8-55.5-52-55.5-154.3c0-37.3-9.5-55.1-14.5-66.6c-12.4-28.5-41.8-64-118-90
		c-0.6-0.2-1.5-0.4-2.7-0.7c-3.5-0.9-17.9-4.2-41.2-0.9c0,0-8.3,1.2-15.6,3c-16.2,4.1-84.9,27-113.4,88.6
		C69.3,161.5,64.1,184,64.1,208c0,102.3-36.2,133.5-55.5,154.3C2.6,368.7,0,376.4,0,384c0.1,16.4,13,32,32.1,32h383.8
		c19.1,0,32-15.6,32.1-32c0-4.2-0.9-7.7-1.2-8.9C444.9,368.8,441.4,364.5,439.4,362.3z M67.5,368c21.2-28,44.4-74.3,44.5-159.4
		c0-0.2-0.1-0.4-0.1-0.6c0-61.9,50.1-112,112-112s112,50.1,112,112c0,0.2-0.1,0.4-0.1,0.6C336,293.7,359.3,340,380.5,368H67.5z
		 M224,512c35.3,0,64-28.6,64-64H160C160,483.4,188.7,512,224,512z"/>
</g>
<g id="Laag_2_1_">
	<circle class="st1" cx="332.8" cy="112.8" r="106.2"/>
	<text transform="matrix(1 0 0 1 294 162.8091)" class="st2 st3 st4">2</text>
	<rect x="322.8" y="84.8" class="st5" width="20" height="5.5"/>
	<polygon class="st5" points="339.2,98.1 344.1,98.1 344.1,98.1 	"/>
</g>
</svg>
